<svg xmlns="http://www.w3.org/2000/svg" xmlns:xlink="http://www.w3.org/1999/xlink" viewBox="0 0 1000 1000"><defs><style>.cls-1{isolation:isolate;}.cls-2{fill:#061042;}.cls-3,.cls-5,.cls-6{mix-blend-mode:soft-light;}.cls-3{fill:url(#linear-gradient);}.cls-4{fill:#54dbfc;}.cls-5{fill:url(#linear-gradient-2);}.cls-6{fill:url(#linear-gradient-3);}</style><linearGradient id="linear-gradient" x1="377.36" y1="500.03" x2="622.64" y2="500.03" gradientUnits="userSpaceOnUse"><stop offset="0" stop-color="#1aa7ec" stop-opacity="0"/><stop offset="0.5"/><stop offset="1" stop-color="#1aa7ec" stop-opacity="0"/></linearGradient><linearGradient id="linear-gradient-2" x1="332.66" y1="219.5" x2="441.18" y2="219.5" gradientUnits="userSpaceOnUse"><stop offset="0" stop-color="#1aa7ec" stop-opacity="0"/><stop offset="1"/></linearGradient><linearGradient id="linear-gradient-3" x1="667.34" y1="780.5" x2="558.82" y2="780.5" xlink:href="#linear-gradient-2"/></defs><title>18-darkblue</title><g class="cls-1"><g id="Layer_1" data-name="Layer 1"><path class="cls-2" d="M667.5,441.2H558.8V558.8H667.5A108.7,108.7,0,1,1,558.8,667.4c0,159.2,108.7,226.3,108.7,226.3,124.7,0,226.2-101.5,226.2-226.3S792.2,441.2,667.5,441.2Z"/><path class="cls-2" d="M223.9,332.6c0-59.9,48.8-108.7,108.6-108.7A108.9,108.9,0,0,1,441.2,332.6c0-159.2-108.7-226.3-108.7-226.3-124.7,0-226.2,101.5-226.2,226.3S207.8,558.8,332.5,558.8H441.2V441.2H332.5A108.8,108.8,0,0,1,223.9,332.6Z"/><rect class="cls-3" x="377.4" y="441.2" width="245.3" height="117.63"/><path class="cls-4" d="M667.5,893.7a225.4,225.4,0,0,1-108.7-27.8c-70-38.6-117.6-113-117.6-198.5V332.6c0-159.2-108.7-226.3-108.7-226.3a225.4,225.4,0,0,1,108.7,27.8c70,38.6,117.6,113.1,117.6,198.5V667.4C558.8,826.6,667.5,893.7,667.5,893.7Z"/><path class="cls-5" d="M441.2,332.6a108.9,108.9,0,0,0-77.9-104.2c-.1-72-28.9-119.1-30.6-122C336.7,109,441.2,176.5,441.2,332.6Z"/><path class="cls-6" d="M667.3,893.6l-.6-.4h0a4.1,4.1,0,0,0-1.1-.7.3.3,0,0,1-.1-.2l-2.7-1.8-2.6-1.9-6-4.8-1.9-1.5c-1.7-1.5-3.6-3.1-5.6-5s-7.2-6.7-11.2-10.7l-6.7-7.1-4.8-5.6-2.5-2.9c-1-1.4-2.2-2.7-3.3-4.1s-2.7-3.6-4.2-5.4a4.7,4.7,0,0,0-.9-1.2c-2.2-3-4.3-6.1-6.5-9.3a230.9,230.9,0,0,1-12.1-19.8c-1.6-2.8-3.2-5.7-4.7-8.7s-1.7-3.3-2.5-5-2.8-5.9-4.1-9a268.1,268.1,0,0,1-16.1-48.3c-.5-2-1-4-1.4-6s-.9-4.1-1.2-6.1a305.5,305.5,0,0,1-5-38.9l-.3-5.1c-.3-5.4-.4-11-.4-16.7a108.7,108.7,0,0,0,77.9,104.2C636.8,843.6,665.6,890.7,667.3,893.6Z"/></g></g></svg>