<svg id="Layer_1" data-name="Layer 1" xmlns="http://www.w3.org/2000/svg" viewBox="0 0 1000 1000"><defs><style>.cls-1{fill:#061042;}</style></defs><title>18-v2-dark_1</title><path class="cls-1" d="M667.4,441.2H622.6V558.8h44.8c59.9,0,108.7,48.8,108.7,108.6A108.8,108.8,0,0,1,667.4,776.1a107.5,107.5,0,0,1-30.7-4.5c.1,72.1,28.9,119.1,30.6,122l-.6-.4h0a4.1,4.1,0,0,0-1.1-.7l1.8,1.2c124.8,0,226.3-101.5,226.3-226.3S792.2,441.2,667.4,441.2Zm-4.6,449.4,2.8,1.9a.3.3,0,0,1-.1-.2Zm-8.6-6.8c3.1,2.7,5.9,4.7,8,6.3l-2-1.5Zm-15.8-14.3c4,4.1,7.8,7.5,11.2,10.5l-2.9-2.7C644.1,875,641.3,872.4,638.4,869.5Zm-9.8-10.3-4.6-5.3C625.5,855.8,627.1,857.5,628.6,859.2Zm-39.9-58.8c1.8,3.6,3.6,7,5.5,10.3-1.5-2.6-3-5.4-4.4-8.2Zm5.7,10.8,1.5,2.6-1.7-3.1A1.7,1.7,0,0,1,594.4,811.2Zm-35.1-133c-.2-2.4-.3-4.8-.4-7.2C558.9,673.4,559.1,675.8,559.3,678.2Z"/><path class="cls-1" d="M441,327c-.1-1.8-.2-3.6-.4-5.3C440.8,323.4,440.9,325.2,441,327Zm-.7-8.1c-.3-2.7-.8-5.3-1.3-7.9C439.5,313.6,440,316.3,440.3,318.9ZM223.9,332.6c0-59.9,48.8-108.7,108.6-108.7a108.2,108.2,0,0,1,30.8,4.5c-.1-72-28.9-119.1-30.6-122a158.3,158.3,0,0,1,16.6,12.7,144.7,144.7,0,0,0-16.8-12.8c-124.7,0-226.2,101.5-226.2,226.3S207.8,558.8,332.5,558.8h44.8V441.2H332.5C272.7,441.2,223.9,392.4,223.9,332.6ZM368.8,137.9c-3.2-3.4-6.2-6.5-9.2-9.4C362.5,131.4,365.6,134.5,368.8,137.9Zm-19.4-18.7,8.1,7.3C354.6,123.7,351.9,121.3,349.4,119.2Z"/><path class="cls-1" d="M667.4,893.7a225.3,225.3,0,0,1-108.6-27.8c-70-38.6-117.6-113-117.6-198.5V332.6c0-159.2-108.7-226.3-108.7-226.3a225.4,225.4,0,0,1,108.7,27.8c70,38.6,117.6,113.1,117.6,198.5V667.4C558.8,826.6,667.4,893.7,667.4,893.7Z"/></svg>